<mxfile host="app.diagrams.net" modified="2020-10-18T03:37:52.925Z" agent="5.0 (Windows NT 10.0; Win64; x64) AppleWebKit/537.36 (KHTML, like Gecko) Chrome/86.0.4240.75 Safari/537.36" etag="dy_di9RsnAGiGrL3XUzx" version="13.8.0" type="github">
  <diagram name="Page-1" id="74e2e168-ea6b-b213-b513-2b3c1d86103e">
    <mxGraphModel dx="1426" dy="832" grid="1" gridSize="10" guides="1" tooltips="1" connect="1" arrows="1" fold="1" page="1" pageScale="1" pageWidth="1100" pageHeight="850" background="#ffffff" math="0" shadow="0">
      <root>
        <mxCell id="0" />
        <mxCell id="1" parent="0" />
        <mxCell id="77e6c97f196da883-1" value="" style="swimlane;html=1;childLayout=stackLayout;startSize=20;rounded=0;shadow=0;labelBackgroundColor=none;strokeWidth=1;fontFamily=Verdana;fontSize=8;align=center;" parent="1" vertex="1">
          <mxGeometry x="70" y="50" width="960" height="750" as="geometry" />
        </mxCell>
        <mxCell id="107ba76e4e335f99-1" style="edgeStyle=orthogonalEdgeStyle;rounded=1;html=1;labelBackgroundColor=none;startArrow=none;startFill=0;startSize=5;endArrow=classicThin;endFill=1;endSize=5;jettySize=auto;orthogonalLoop=1;strokeWidth=1;fontFamily=Verdana;fontSize=8" parent="77e6c97f196da883-1" source="77e6c97f196da883-17" edge="1">
          <mxGeometry relative="1" as="geometry">
            <mxPoint x="510" y="450" as="targetPoint" />
          </mxGeometry>
        </mxCell>
        <mxCell id="107ba76e4e335f99-3" style="edgeStyle=orthogonalEdgeStyle;rounded=1;html=1;labelBackgroundColor=none;startArrow=none;startFill=0;startSize=5;endArrow=classicThin;endFill=1;endSize=5;jettySize=auto;orthogonalLoop=1;strokeColor=#000000;strokeWidth=1;fontFamily=Verdana;fontSize=8;fontColor=#000000;" parent="77e6c97f196da883-1" target="77e6c97f196da883-19" edge="1">
          <mxGeometry relative="1" as="geometry">
            <mxPoint x="510" y="610" as="sourcePoint" />
          </mxGeometry>
        </mxCell>
        <mxCell id="77e6c97f196da883-3" value="医疗物资管理员" style="swimlane;html=1;startSize=20;" parent="77e6c97f196da883-1" vertex="1">
          <mxGeometry y="20" width="160" height="730" as="geometry" />
        </mxCell>
        <mxCell id="43SZNCcPnYKjRnb0g4TB-17" value="输入物资数量" style="whiteSpace=wrap;html=1;rounded=1;" vertex="1" parent="77e6c97f196da883-3">
          <mxGeometry x="20" y="330" width="120" height="60" as="geometry" />
        </mxCell>
        <mxCell id="43SZNCcPnYKjRnb0g4TB-11" value="输入物资名称" style="whiteSpace=wrap;html=1;rounded=1;" vertex="1" parent="77e6c97f196da883-3">
          <mxGeometry x="20" y="190" width="120" height="60" as="geometry" />
        </mxCell>
        <mxCell id="43SZNCcPnYKjRnb0g4TB-4" value="" style="verticalLabelPosition=bottom;verticalAlign=top;html=1;shape=mxgraph.flowchart.on-page_reference;fillColor=#333333;" vertex="1" parent="77e6c97f196da883-3">
          <mxGeometry x="65" y="40" width="30" height="30" as="geometry" />
        </mxCell>
        <mxCell id="43SZNCcPnYKjRnb0g4TB-6" value="" style="edgeStyle=orthogonalEdgeStyle;rounded=0;orthogonalLoop=1;jettySize=auto;html=1;" edge="1" parent="77e6c97f196da883-3" source="43SZNCcPnYKjRnb0g4TB-4" target="43SZNCcPnYKjRnb0g4TB-8">
          <mxGeometry relative="1" as="geometry">
            <mxPoint x="80" y="110" as="targetPoint" />
          </mxGeometry>
        </mxCell>
        <mxCell id="43SZNCcPnYKjRnb0g4TB-8" value="分配物资" style="rounded=1;whiteSpace=wrap;html=1;" vertex="1" parent="77e6c97f196da883-3">
          <mxGeometry x="20" y="110" width="120" height="60" as="geometry" />
        </mxCell>
        <mxCell id="77e6c97f196da883-6" value="系统" style="swimlane;html=1;startSize=20;" parent="77e6c97f196da883-1" vertex="1">
          <mxGeometry x="160" y="20" width="180" height="730" as="geometry" />
        </mxCell>
        <mxCell id="77e6c97f196da883-37" style="edgeStyle=orthogonalEdgeStyle;rounded=1;html=1;labelBackgroundColor=none;startArrow=none;startFill=0;startSize=5;endArrow=classicThin;endFill=1;endSize=5;jettySize=auto;orthogonalLoop=1;strokeWidth=1;fontFamily=Verdana;fontSize=8" parent="77e6c97f196da883-6" source="77e6c97f196da883-18" edge="1">
          <mxGeometry relative="1" as="geometry">
            <mxPoint x="80" y="480" as="targetPoint" />
          </mxGeometry>
        </mxCell>
        <mxCell id="77e6c97f196da883-38" style="edgeStyle=orthogonalEdgeStyle;rounded=1;html=1;labelBackgroundColor=none;startArrow=none;startFill=0;startSize=5;endArrow=classicThin;endFill=1;endSize=5;jettySize=auto;orthogonalLoop=1;strokeWidth=1;fontFamily=Verdana;fontSize=8" parent="77e6c97f196da883-6" source="77e6c97f196da883-21" edge="1">
          <mxGeometry relative="1" as="geometry">
            <mxPoint x="80" y="560" as="targetPoint" />
          </mxGeometry>
        </mxCell>
        <mxCell id="43SZNCcPnYKjRnb0g4TB-26" value="" style="ellipse;whiteSpace=wrap;html=1;aspect=fixed;fillColor=#FFFFFF;" vertex="1" parent="77e6c97f196da883-6">
          <mxGeometry x="70" y="680" width="40" height="40" as="geometry" />
        </mxCell>
        <mxCell id="43SZNCcPnYKjRnb0g4TB-23" value="发送分配成功提示" style="whiteSpace=wrap;html=1;rounded=1;" vertex="1" parent="77e6c97f196da883-6">
          <mxGeometry x="30" y="500" width="120" height="60" as="geometry" />
        </mxCell>
        <mxCell id="43SZNCcPnYKjRnb0g4TB-20" value="" style="rhombus;whiteSpace=wrap;html=1;rounded=1;" vertex="1" parent="77e6c97f196da883-6">
          <mxGeometry x="50" y="390" width="80" height="80" as="geometry" />
        </mxCell>
        <mxCell id="43SZNCcPnYKjRnb0g4TB-9" value="发送物资输入提示" style="whiteSpace=wrap;html=1;rounded=1;" vertex="1" parent="77e6c97f196da883-6">
          <mxGeometry x="30" y="190" width="120" height="60" as="geometry" />
        </mxCell>
        <mxCell id="43SZNCcPnYKjRnb0g4TB-13" value="" style="rhombus;whiteSpace=wrap;html=1;rounded=1;" vertex="1" parent="77e6c97f196da883-6">
          <mxGeometry x="50" y="260" width="80" height="80" as="geometry" />
        </mxCell>
        <mxCell id="43SZNCcPnYKjRnb0g4TB-24" value="" style="edgeStyle=orthogonalEdgeStyle;rounded=0;orthogonalLoop=1;jettySize=auto;html=1;" edge="1" parent="77e6c97f196da883-6" source="43SZNCcPnYKjRnb0g4TB-20" target="43SZNCcPnYKjRnb0g4TB-23">
          <mxGeometry relative="1" as="geometry" />
        </mxCell>
        <mxCell id="43SZNCcPnYKjRnb0g4TB-30" value="" style="edgeStyle=orthogonalEdgeStyle;rounded=0;orthogonalLoop=1;jettySize=auto;html=1;" edge="1" parent="77e6c97f196da883-6" source="43SZNCcPnYKjRnb0g4TB-23" target="43SZNCcPnYKjRnb0g4TB-29">
          <mxGeometry relative="1" as="geometry" />
        </mxCell>
        <mxCell id="43SZNCcPnYKjRnb0g4TB-29" value="退出" style="whiteSpace=wrap;html=1;rounded=1;" vertex="1" parent="77e6c97f196da883-6">
          <mxGeometry x="30" y="580" width="120" height="60" as="geometry" />
        </mxCell>
        <mxCell id="43SZNCcPnYKjRnb0g4TB-27" value="" style="ellipse;whiteSpace=wrap;html=1;aspect=fixed;fillColor=#000000;" vertex="1" parent="77e6c97f196da883-6">
          <mxGeometry x="75" y="685" width="30" height="30" as="geometry" />
        </mxCell>
        <mxCell id="43SZNCcPnYKjRnb0g4TB-33" value="" style="endArrow=classic;html=1;entryX=0.5;entryY=0;entryDx=0;entryDy=0;exitX=0.5;exitY=1;exitDx=0;exitDy=0;" edge="1" parent="77e6c97f196da883-6" source="43SZNCcPnYKjRnb0g4TB-29" target="43SZNCcPnYKjRnb0g4TB-26">
          <mxGeometry width="50" height="50" relative="1" as="geometry">
            <mxPoint x="470" y="380" as="sourcePoint" />
            <mxPoint x="520" y="330" as="targetPoint" />
          </mxGeometry>
        </mxCell>
        <mxCell id="77e6c97f196da883-7" value="Lane 6" style="swimlane;html=1;startSize=20;" parent="77e6c97f196da883-1" vertex="1">
          <mxGeometry x="340" y="20" width="160" height="730" as="geometry" />
        </mxCell>
        <mxCell id="43SZNCcPnYKjRnb0g4TB-10" value="" style="edgeStyle=orthogonalEdgeStyle;rounded=0;orthogonalLoop=1;jettySize=auto;html=1;" edge="1" parent="77e6c97f196da883-1" source="43SZNCcPnYKjRnb0g4TB-8" target="43SZNCcPnYKjRnb0g4TB-9">
          <mxGeometry relative="1" as="geometry" />
        </mxCell>
        <mxCell id="43SZNCcPnYKjRnb0g4TB-12" value="" style="edgeStyle=orthogonalEdgeStyle;rounded=0;orthogonalLoop=1;jettySize=auto;html=1;" edge="1" parent="77e6c97f196da883-1" source="43SZNCcPnYKjRnb0g4TB-9" target="43SZNCcPnYKjRnb0g4TB-11">
          <mxGeometry relative="1" as="geometry" />
        </mxCell>
        <mxCell id="43SZNCcPnYKjRnb0g4TB-14" value="" style="edgeStyle=orthogonalEdgeStyle;rounded=0;orthogonalLoop=1;jettySize=auto;html=1;" edge="1" parent="77e6c97f196da883-1" source="43SZNCcPnYKjRnb0g4TB-11" target="43SZNCcPnYKjRnb0g4TB-13">
          <mxGeometry relative="1" as="geometry">
            <Array as="points">
              <mxPoint x="80" y="320" />
            </Array>
          </mxGeometry>
        </mxCell>
        <mxCell id="43SZNCcPnYKjRnb0g4TB-18" value="" style="edgeStyle=orthogonalEdgeStyle;rounded=0;orthogonalLoop=1;jettySize=auto;html=1;" edge="1" parent="77e6c97f196da883-1" source="43SZNCcPnYKjRnb0g4TB-13" target="43SZNCcPnYKjRnb0g4TB-17">
          <mxGeometry relative="1" as="geometry">
            <Array as="points">
              <mxPoint x="175" y="330" />
              <mxPoint x="175" y="380" />
            </Array>
          </mxGeometry>
        </mxCell>
        <mxCell id="43SZNCcPnYKjRnb0g4TB-19" value="" style="endArrow=classic;html=1;entryX=0.942;entryY=1.033;entryDx=0;entryDy=0;entryPerimeter=0;" edge="1" parent="77e6c97f196da883-1" source="43SZNCcPnYKjRnb0g4TB-13" target="43SZNCcPnYKjRnb0g4TB-11">
          <mxGeometry width="50" height="50" relative="1" as="geometry">
            <mxPoint x="630" y="410" as="sourcePoint" />
            <mxPoint x="680" y="360" as="targetPoint" />
          </mxGeometry>
        </mxCell>
        <mxCell id="43SZNCcPnYKjRnb0g4TB-21" value="" style="edgeStyle=orthogonalEdgeStyle;rounded=0;orthogonalLoop=1;jettySize=auto;html=1;" edge="1" parent="77e6c97f196da883-1" source="43SZNCcPnYKjRnb0g4TB-17" target="43SZNCcPnYKjRnb0g4TB-20">
          <mxGeometry relative="1" as="geometry">
            <Array as="points">
              <mxPoint x="80" y="450" />
            </Array>
          </mxGeometry>
        </mxCell>
        <mxCell id="43SZNCcPnYKjRnb0g4TB-22" value="" style="endArrow=classic;html=1;entryX=1;entryY=1;entryDx=0;entryDy=0;exitX=0;exitY=0;exitDx=0;exitDy=0;" edge="1" parent="77e6c97f196da883-1" source="43SZNCcPnYKjRnb0g4TB-20" target="43SZNCcPnYKjRnb0g4TB-17">
          <mxGeometry width="50" height="50" relative="1" as="geometry">
            <mxPoint x="630" y="410" as="sourcePoint" />
            <mxPoint x="680" y="360" as="targetPoint" />
          </mxGeometry>
        </mxCell>
      </root>
    </mxGraphModel>
  </diagram>
</mxfile>
